<?xml version="1.0" encoding="UTF-8" standalone="no"?>
<!DOCTYPE svg PUBLIC "-//W3C//DTD SVG 1.1//EN" "http://www.w3.org/Graphics/SVG/1.1/DTD/svg11.dtd">
<svg width="100%" height="100%" viewBox="0 0 40 40" version="1.1" xmlns="http://www.w3.org/2000/svg" xmlns:xlink="http://www.w3.org/1999/xlink" xml:space="preserve" xmlns:serif="http://www.serif.com/" style="fill-rule:evenodd;clip-rule:evenodd;stroke-linejoin:round;stroke-miterlimit:2;">
    <g id="surface1" transform="matrix(0.0706779,0,0,0.0706779,-234.142,239.813)">
        <g transform="matrix(1,0,0,1,3339.26,-3366.06)">
            <path d="M300.293,390.902L212.742,390.902L177.48,457.406L212.742,504.5L300.293,504.5L335.555,447.699L300.293,390.902Z" style="fill:rgb(238,236,237);fill-rule:nonzero;"/>
        </g>
        <g transform="matrix(1,0,0,1,3339.26,-3366.06)">
            <path d="M38.676,220.598C38.676,163.527 61.434,109.918 102.758,69.641C143.871,29.566 198.477,7.5 256.516,7.5C314.555,7.5 369.164,29.566 410.273,69.641C451.598,109.918 474.355,163.527 474.355,220.598L38.676,220.598Z" style="fill:rgb(57,71,74);fill-rule:nonzero;"/>
        </g>
        <g transform="matrix(1,0,0,1,3339.26,-3366.06)">
            <path d="M142.758,69.641C179.113,34.207 226.02,12.863 276.516,8.395C269.906,7.809 263.234,7.5 256.516,7.5C198.477,7.5 143.871,29.566 102.758,69.641C61.434,109.918 38.676,163.527 38.676,220.598L78.676,220.598C78.676,163.527 101.434,109.918 142.758,69.641Z" style="fill:rgb(49,61,63);fill-rule:nonzero;"/>
        </g>
        <g transform="matrix(1,0,0,1,3339.26,-3366.06)">
            <path d="M500.34,275.852L470.98,256.859L42.055,256.859L12.699,275.852C9.676,277.805 8.645,281.73 10.309,284.918C20.863,305.141 62.527,374.324 156.633,415.641L356.406,415.641C450.512,374.324 492.176,305.141 502.727,284.918C504.391,281.73 503.359,277.805 500.34,275.852Z" style="fill:rgb(254,102,104);fill-rule:nonzero;"/>
        </g>
        <g transform="matrix(1,0,0,1,3339.26,-3366.06)">
            <path d="M266.406,401.641L176.629,401.641C82.523,360.324 40.863,291.141 30.309,270.918C29.215,268.82 29.293,266.406 30.332,264.445L12.699,275.852C9.676,277.805 8.645,281.73 10.309,284.918C20.863,305.141 62.527,374.324 156.633,415.641L246.406,415.641L266.406,401.641Z" style="fill:rgb(254,76,78);fill-rule:nonzero;"/>
        </g>
        <g transform="matrix(1,0,0,1,3339.26,-3366.06)">
            <path d="M212.742,390.902L212.742,504.5L124.391,504.5C124.391,419.125 188.789,390.902 188.789,390.902L212.742,390.902Z" style="fill:rgb(57,71,74);fill-rule:nonzero;"/>
        </g>
        <g transform="matrix(1,0,0,1,3339.26,-3366.06)">
            <path d="M209.789,390.902L188.789,390.902C188.789,390.902 124.391,419.125 124.391,504.5L145.391,504.5C145.391,419.125 209.789,390.902 209.789,390.902Z" style="fill:rgb(49,61,63);fill-rule:nonzero;"/>
        </g>
        <g transform="matrix(1,0,0,1,3339.26,-3366.06)">
            <path d="M388.645,504.5L300.293,504.5L300.293,390.902L324.25,390.902C324.25,390.902 388.645,419.125 388.645,504.5Z" style="fill:rgb(57,71,74);fill-rule:nonzero;"/>
        </g>
        <g transform="matrix(1,0,0,1,3339.26,-3366.06)">
            <path d="M485.199,225.68C485.199,248.508 466.691,267.012 443.867,267.012C421.039,267.012 402.535,248.508 402.535,225.68C402.535,202.852 421.039,184.348 443.867,184.348C466.691,184.348 485.199,202.852 485.199,225.68Z" style="fill:rgb(253,206,191);fill-rule:nonzero;"/>
        </g>
        <g transform="matrix(1,0,0,1,3339.26,-3366.06)">
            <path d="M256.516,95.586C169.422,50.523 70.664,114.949 69.203,223.25C70.66,322.875 153.957,403.203 256.52,403.203C359.078,403.203 442.375,322.875 443.832,223.25C442.371,114.949 343.613,50.523 256.516,95.586Z" style="fill:rgb(253,224,215);fill-rule:nonzero;"/>
        </g>
        <g transform="matrix(1,0,0,1,3339.26,-3366.06)">
            <path d="M99.203,223.25C100.258,145.105 151.973,89.813 213.41,82.004C150.816,74.133 91.328,116.234 74.141,184.699C72.625,184.477 70.98,184.348 69.168,184.348C46.344,184.348 27.836,202.852 27.836,225.68C27.836,248.504 46.344,267.012 69.168,267.012C71.395,267.012 73.379,266.828 75.164,266.492C96.051,345.121 169.313,403.203 256.52,403.203C261.566,403.203 266.57,403 271.52,402.617C175.957,395.238 100.59,317.969 99.203,223.25Z" style="fill:rgb(253,206,191);fill-rule:nonzero;"/>
        </g>
        <g transform="matrix(1,0,0,1,3339.26,-3366.06)">
            <path d="M359.68,260.285L335.555,260.285C331.41,260.285 328.055,256.926 328.055,252.785C328.055,248.645 331.41,245.285 335.555,245.285L359.68,245.285C363.82,245.285 367.18,248.645 367.18,252.785C367.18,256.926 363.82,260.285 359.68,260.285Z" style="fill:rgb(249,127,132);fill-rule:nonzero;"/>
        </g>
        <g transform="matrix(1,0,0,1,3339.26,-3366.06)">
            <path d="M177.48,260.285L153.355,260.285C149.215,260.285 145.855,256.926 145.855,252.785C145.855,248.645 149.215,245.285 153.355,245.285L177.48,245.285C181.625,245.285 184.98,248.645 184.98,252.785C184.98,256.926 181.625,260.285 177.48,260.285Z" style="fill:rgb(249,127,132);fill-rule:nonzero;"/>
        </g>
        <g transform="matrix(1,0,0,1,3339.26,-3366.06)">
            <path d="M275.301,416.234C275.301,416.234 325.293,459.102 325.293,403.203C325.293,347.305 275.301,390.172 275.301,390.172L275.301,416.234Z" style="fill:rgb(254,76,78);fill-rule:nonzero;"/>
        </g>
        <g transform="matrix(1,0,0,1,3339.26,-3366.06)">
            <path d="M237.734,416.234C237.734,416.234 187.742,459.102 187.742,403.203C187.742,347.305 237.734,390.172 237.734,390.172L237.734,416.234Z" style="fill:rgb(254,76,78);fill-rule:nonzero;"/>
        </g>
        <g transform="matrix(1,0,0,1,3339.26,-3366.06)">
            <path d="M262.953,385.246L250.082,385.246C240.164,385.246 232.125,393.285 232.125,403.203C232.125,413.121 240.164,421.16 250.082,421.16L262.953,421.16C272.871,421.16 280.91,413.121 280.91,403.203C280.91,393.285 272.871,385.246 262.953,385.246Z" style="fill:rgb(254,102,104);fill-rule:nonzero;"/>
        </g>
        <g transform="matrix(1,0,0,1,3339.26,-3366.06)">
            <path d="M347.617,234.25C351.758,234.25 355.117,230.891 355.117,226.75L355.117,209.035C355.117,204.895 351.758,201.535 347.617,201.535C343.473,201.535 340.117,204.895 340.117,209.035L340.117,226.75C340.117,230.891 343.473,234.25 347.617,234.25Z" style="fill-rule:nonzero;"/>
        </g>
        <g transform="matrix(1,0,0,1,3339.26,-3366.06)">
            <path d="M165.422,234.25C169.563,234.25 172.922,230.891 172.922,226.75L172.922,209.035C172.922,204.895 169.563,201.535 165.422,201.535C161.277,201.535 157.922,204.895 157.922,209.035L157.922,226.75C157.922,230.891 161.277,234.25 165.422,234.25Z" style="fill-rule:nonzero;"/>
        </g>
        <g transform="matrix(1,0,0,1,3339.26,-3366.06)">
            <path d="M256.52,259.285C265.031,259.285 273.031,255.723 278.461,249.512C281.184,246.395 280.867,241.656 277.75,238.93C274.629,236.203 269.891,236.52 267.164,239.641C264.586,242.59 260.703,244.285 256.52,244.285C252.332,244.285 248.453,242.59 245.871,239.641C243.145,236.52 238.406,236.199 235.289,238.93C232.168,241.652 231.852,246.391 234.578,249.512C240.008,255.723 248.004,259.285 256.52,259.285Z" style="fill-rule:nonzero;"/>
        </g>
        <g transform="matrix(1,0,0,1,3339.26,-3366.06)">
            <path d="M263.176,447.699C263.176,451.379 260.195,454.359 256.52,454.359C252.84,454.359 249.859,451.379 249.859,447.699C249.859,444.023 252.84,441.039 256.52,441.039C260.195,441.039 263.176,444.023 263.176,447.699Z" style="fill-rule:nonzero;"/>
        </g>
        <g transform="matrix(1,0,0,1,3339.26,-3366.06)">
            <path d="M263.176,478.191C263.176,481.867 260.195,484.852 256.52,484.852C252.84,484.852 249.859,481.867 249.859,478.191C249.859,474.512 252.84,471.531 256.52,471.531C260.195,471.531 263.176,474.512 263.176,478.191Z" style="fill-rule:nonzero;"/>
        </g>
        <g transform="matrix(1,0,0,1,3339.26,-3366.06)">
            <path d="M144.574,418.379C130.754,436.316 116.891,464.324 116.891,504.5C116.891,508.641 120.25,512 124.391,512L388.645,512C392.789,512 396.145,508.641 396.145,504.5C396.145,464.316 382.277,436.309 368.457,418.367C386.543,409.793 403.754,399.695 419.727,388.254C423.094,385.844 423.867,381.156 421.457,377.789C419.043,374.426 414.359,373.648 410.992,376.063C394.617,387.789 376.875,398.059 358.184,406.621C354.133,402.527 349.797,398.711 345.223,395.215C343.816,394.137 342.398,392.977 340.891,392.051C340.875,392.035 340.855,392.023 340.84,392.012C340.93,391.969 341.02,391.926 341.109,391.883C370.816,377.918 396.375,356.859 415.633,330.324C428.082,313.172 437.406,294.348 443.406,274.508C443.477,274.512 443.547,274.508 443.617,274.508C446.09,274.523 448.59,274.336 451.035,273.98C457.316,273.051 463.328,270.855 468.801,267.645C469.668,267.137 470.52,266.602 471.352,266.035L495.852,281.883C489.238,294.453 470.402,326.074 434.164,357.723C431.043,360.449 430.723,365.188 433.449,368.305C436.172,371.426 440.91,371.746 444.031,369.02C482.609,335.324 502.582,301.41 509.375,288.391C512.852,281.73 510.715,273.637 504.414,269.555L482.559,255.422C488.91,247.176 492.699,236.867 492.699,225.68C492.699,213.109 487.922,201.637 480.09,192.973C473.879,143.895 451.59,99.438 415.512,64.27C372.988,22.824 316.523,0 256.52,0C203.32,0 151.746,18.438 111.297,51.914C108.105,54.555 107.66,59.281 110.301,62.473C112.941,65.664 117.672,66.109 120.859,63.469C158.629,32.215 206.805,15 256.52,15C312.59,15 365.336,36.313 405.043,75.012C435.148,104.359 454.961,140.629 462.922,180.691C459.234,179.129 455.352,178.031 451.348,177.422C451.148,177.391 444.574,177.008 444.527,176.852C435.945,147.453 419.574,122.273 397.668,104.059C382.035,91.016 363.508,81.527 343.664,76.891C322.047,71.742 299.301,72.559 278.016,78.852C270.828,80.977 263.695,83.621 256.988,86.977C256.832,87.051 256.676,87.121 256.52,87.195C256.348,87.113 256.176,87.035 256.004,86.953C249.188,83.684 242.125,80.934 234.871,78.813C213.645,72.605 191.023,71.766 169.484,76.863C148.898,81.734 129.117,92.004 113.051,106.031C92.305,124.07 76.785,148.5 68.512,176.852C68.16,176.855 67.813,176.879 67.465,176.891C67.113,176.902 66.762,176.91 66.414,176.93C65.898,176.957 65.383,177.004 64.867,177.047C64.59,177.07 64.309,177.09 64.031,177.117C63.371,177.188 62.719,177.273 62.063,177.371C61.941,177.387 61.816,177.402 61.691,177.422C57.691,178.031 53.813,179.129 50.125,180.691C57.348,144.527 74.348,111.176 99.844,83.426C102.645,80.375 102.445,75.629 99.395,72.828C96.344,70.023 91.598,70.227 88.797,73.277C57.887,106.922 38.609,148.262 32.941,192.973C25.113,201.637 20.34,213.109 20.34,225.68C20.34,236.863 24.129,247.176 30.477,255.418L8.625,269.555C2.32,273.633 0.184,281.73 3.66,288.391C14.16,308.508 54.672,375.77 144.574,418.379ZM161.684,421.234C165.656,416.801 170,412.68 174.633,408.941C175.836,407.98 179.594,405.164 180.258,404.695C180.262,404.938 180.273,405.16 180.277,405.398C180.434,411.801 181.195,418.313 183.586,424.297C185.805,429.863 189.539,434.645 194.988,437.313C198.16,438.867 201.73,439.477 205.242,439.441L205.242,497L176.066,497L176.066,466.895C176.066,462.754 172.711,459.395 168.566,459.395C164.426,459.395 161.066,462.754 161.066,466.895L161.066,497L132.066,497C133.477,467.051 143.422,441.594 161.684,421.234ZM170.793,374.539C150.945,364.035 133.414,350.043 119.031,333.438C118.887,333.273 118.742,333.105 118.598,332.938C88.133,297.41 71.746,249.133 78.309,202.508C78.328,202.371 78.348,202.234 78.367,202.102C83.094,169.363 99.148,136.961 125.258,115.34C161.234,85.543 211.438,80.746 253.012,102.219C255.168,103.332 257.801,103.367 259.965,102.246C266.953,98.629 274.277,95.641 281.82,93.383C323.609,80.867 368.984,94.211 398.773,125.641C432.5,161.23 445.047,217.668 430.629,264.531C430.602,264.625 430.57,264.719 430.547,264.816C424.699,286.695 414.578,306.988 401.059,324.754C385.355,345.387 365.113,362.445 342.199,374.563C337.879,376.852 333.457,378.953 328.965,380.883C327.996,378.711 326.766,376.652 325.262,374.809C320.031,368.383 313.121,366.965 308.078,366.965C296.426,366.965 283.785,374.566 276.449,379.809C275.973,380.148 275.52,380.477 275.09,380.797C275.082,380.801 275.07,380.809 275.063,380.816C274.945,380.906 272.855,379.758 272.602,379.652C269.559,378.398 266.285,377.758 263,377.75C262.984,377.75 262.969,377.746 262.953,377.746L250.082,377.746C250.066,377.746 250.051,377.75 250.039,377.75C245.879,377.75 241.645,378.809 237.973,380.813C237.953,380.797 237.926,380.781 237.906,380.766C232.719,376.949 227.184,373.52 221.277,370.926C216.047,368.625 210.395,366.965 204.957,366.965C199.918,366.965 193.016,368.383 187.785,374.793C186.273,376.645 185.047,378.703 184.07,380.883C182.664,380.277 173.719,376.211 170.793,374.539ZM64.684,259.195C58.301,258.332 52.191,255.625 47.281,251.449C39.98,245.238 35.34,235.992 35.34,225.68C35.34,210.129 45.883,196.996 60.199,193.055C61.629,192.66 63.105,192.363 64.582,192.16C64.66,192.152 64.738,192.141 64.816,192.133C63.129,200.949 62.121,210.023 61.801,219.242C61.336,232.629 62.957,246.242 65.73,259.324C65.379,259.285 65.031,259.242 64.684,259.195ZM448.457,192.164C449.898,192.355 451.328,192.66 452.738,193.027C452.77,193.035 452.805,193.047 452.836,193.055C467.152,196.992 477.699,210.129 477.699,225.68C477.699,242.531 464.645,257.285 447.891,259.262C447.699,259.285 447.504,259.301 447.309,259.32C448.863,251.973 449.973,244.512 450.633,236.973C450.637,236.938 450.641,236.902 450.641,236.867C451.156,230.992 451.441,225.129 451.238,219.234C450.918,210.016 449.906,200.945 448.223,192.133C448.301,192.141 448.379,192.152 448.457,192.164ZM308.078,424.484C305.027,424.516 301.961,423.461 299.168,422.32C294.359,420.352 289.449,417.344 285.672,414.711C286.504,413.078 287.145,411.355 287.609,409.551C288.68,405.398 288.68,400.973 287.602,396.82C287.145,395.043 286.504,393.324 285.672,391.695C285.668,391.629 287.297,390.586 287.789,390.262C291.727,387.664 295.863,385.301 300.293,383.645C303.148,382.578 306.336,381.691 309.414,382.031C314.32,382.574 316.082,388.285 316.883,392.348C317.582,395.914 317.793,399.57 317.793,403.203C317.793,411.676 316.555,416.641 315.211,419.547C313.852,422.477 311.406,424.457 308.078,424.484ZM267.719,412.445C266.273,413.219 264.648,413.66 262.957,413.66L250.082,413.66C244.414,413.66 239.625,408.871 239.625,403.203C239.625,397.57 244.441,392.746 250.082,392.746L262.957,392.746C268.609,392.746 273.41,397.555 273.41,403.203C273.41,407.121 271.051,410.66 267.719,412.445ZM195.301,400.219L195.301,400.188C195.523,394.59 196.156,382.965 203.641,382.031C207.75,381.586 211.793,383.098 215.469,384.773C219.535,386.633 223.387,388.941 227.059,391.484C227.164,391.555 227.262,391.625 227.363,391.695C226.535,393.324 225.895,395.039 225.438,396.816C225.434,396.832 225.43,396.844 225.426,396.859C224.875,398.922 224.625,401.07 224.625,403.203C224.625,407.137 225.563,411.172 227.363,414.711C227.336,414.734 227.305,414.754 227.273,414.773C223.523,417.387 218.676,420.348 213.918,422.301C211.09,423.449 208.047,424.441 204.957,424.441C194.266,424.441 194.977,407.402 195.301,400.219ZM220.242,435.926C227.383,432.938 233.82,428.664 237.977,425.59C241.672,427.598 245.875,428.656 250.082,428.656L262.957,428.656C267.121,428.656 271.367,427.594 275.063,425.59C279.203,428.652 285.617,432.914 292.73,435.898C292.754,435.906 292.773,435.918 292.793,435.926L292.793,497L220.242,497L220.242,435.926ZM351.969,497L351.969,466.895C351.969,462.754 348.609,459.395 344.469,459.395C340.328,459.395 336.969,462.754 336.969,466.895L336.969,497L307.793,497L307.793,439.441L308.082,439.441C315.465,439.477 322.27,436.129 326.465,430C330.508,424.164 332.578,415.949 332.773,404.934C332.773,404.855 332.777,404.777 332.781,404.695C332.824,404.727 332.867,404.758 332.91,404.789C339.363,409.355 345.887,415.137 351.352,421.234C369.617,441.594 379.563,467.051 380.973,497L351.969,497ZM41.684,266.031C49.309,271.23 58.398,274.195 67.625,274.484C68.293,274.504 68.961,274.516 69.629,274.508C75.629,294.344 84.953,313.172 97.402,330.324C116.656,356.852 142.207,377.906 171.902,391.867C172,391.914 172.098,391.965 172.195,392.012C172.184,392.02 172.168,392.031 172.152,392.043C171.57,392.449 170.973,392.871 170.367,393.313C165.664,396.719 161.203,400.457 157.02,404.488C156.293,405.191 155.566,405.902 154.852,406.621C67.109,366.43 27.633,301.742 17.184,281.883L41.684,266.031Z" style="fill-rule:nonzero;"/>
        </g>
    </g>
</svg>
