<svg xmlns="http://www.w3.org/2000/svg" height="512pt" version="1.1" viewBox="-2 0 512 512" width="512pt">
<g id="surface1">
<path d="M 298.292969 390.902344 L 210.742188 390.902344 L 175.480469 457.40625 L 210.742188 504.5 L 298.292969 504.5 L 333.554688 447.699219 Z M 298.292969 390.902344 " style=" stroke:none;fill-rule:nonzero;fill:rgb(93.72549%,92.941176%,93.333333%);fill-opacity:1;" />
<path d="M 36.675781 220.597656 C 36.675781 163.527344 59.433594 109.917969 100.757812 69.640625 C 141.871094 29.566406 196.476562 7.5 254.515625 7.5 C 312.554688 7.5 367.164062 29.566406 408.273438 69.640625 C 449.597656 109.917969 472.355469 163.527344 472.355469 220.597656 Z M 36.675781 220.597656 " style=" stroke:none;fill-rule:nonzero;fill:rgb(22.745098%,28.235294%,29.019608%);fill-opacity:1;" />
<path d="M 140.757812 69.640625 C 177.113281 34.207031 224.019531 12.863281 274.515625 8.394531 C 267.90625 7.808594 261.234375 7.5 254.515625 7.5 C 196.476562 7.5 141.871094 29.566406 100.757812 69.640625 C 59.433594 109.917969 36.675781 163.527344 36.675781 220.597656 L 76.675781 220.597656 C 76.675781 163.527344 99.433594 109.917969 140.757812 69.640625 Z M 140.757812 69.640625 " style=" stroke:none;fill-rule:nonzero;fill:rgb(19.607843%,24.313725%,25.098039%);fill-opacity:1;" />
<path d="M 498.339844 275.851562 L 468.980469 256.859375 L 40.054688 256.859375 L 10.699219 275.851562 C 7.675781 277.804688 6.644531 281.730469 8.308594 284.917969 C 18.863281 305.140625 60.527344 374.324219 154.632812 415.640625 L 354.40625 415.640625 C 448.511719 374.324219 490.175781 305.140625 500.726562 284.917969 C 502.390625 281.730469 501.359375 277.804688 498.339844 275.851562 Z M 498.339844 275.851562 " style=" stroke:none;fill-rule:nonzero;fill:rgb(100%,40%,40.784314%);fill-opacity:1;" />
<path d="M 264.40625 401.640625 L 174.628906 401.640625 C 80.523438 360.324219 38.863281 291.140625 28.308594 270.917969 C 27.214844 268.820312 27.292969 266.40625 28.332031 264.445312 L 10.699219 275.851562 C 7.675781 277.804688 6.644531 281.730469 8.308594 284.917969 C 18.863281 305.140625 60.527344 374.324219 154.632812 415.640625 L 244.40625 415.640625 Z M 264.40625 401.640625 " style=" stroke:none;fill-rule:nonzero;fill:rgb(100%,30.196078%,30.980392%);fill-opacity:1;" />
<path d="M 210.742188 390.902344 L 210.742188 504.5 L 122.390625 504.5 C 122.390625 419.125 186.789062 390.902344 186.789062 390.902344 Z M 210.742188 390.902344 " style=" stroke:none;fill-rule:nonzero;fill:rgb(22.745098%,28.235294%,29.019608%);fill-opacity:1;" />
<path d="M 207.789062 390.902344 L 186.789062 390.902344 C 186.789062 390.902344 122.390625 419.125 122.390625 504.5 L 143.390625 504.5 C 143.390625 419.125 207.789062 390.902344 207.789062 390.902344 Z M 207.789062 390.902344 " style=" stroke:none;fill-rule:nonzero;fill:rgb(19.607843%,24.313725%,25.098039%);fill-opacity:1;" />
<path d="M 386.644531 504.5 L 298.292969 504.5 L 298.292969 390.902344 L 322.25 390.902344 C 322.25 390.902344 386.644531 419.125 386.644531 504.5 Z M 386.644531 504.5 " style=" stroke:none;fill-rule:nonzero;fill:rgb(22.745098%,28.235294%,29.019608%);fill-opacity:1;" />
<path d="M 483.199219 225.679688 C 483.199219 248.507812 464.691406 267.011719 441.867188 267.011719 C 419.039062 267.011719 400.535156 248.507812 400.535156 225.679688 C 400.535156 202.851562 419.039062 184.347656 441.867188 184.347656 C 464.691406 184.347656 483.199219 202.851562 483.199219 225.679688 Z M 483.199219 225.679688 " style=" stroke:none;fill-rule:nonzero;fill:rgb(99.607843%,80.784314%,74.901961%);fill-opacity:1;" />
<path d="M 254.515625 95.585938 C 167.421875 50.523438 68.664062 114.949219 67.203125 223.25 C 68.660156 322.875 151.957031 403.203125 254.519531 403.203125 C 357.078125 403.203125 440.375 322.875 441.832031 223.25 C 440.371094 114.949219 341.613281 50.523438 254.515625 95.585938 Z M 254.515625 95.585938 " style=" stroke:none;fill-rule:nonzero;fill:rgb(99.607843%,88.235294%,84.705882%);fill-opacity:1;" />
<path d="M 97.203125 223.25 C 98.257812 145.105469 149.972656 89.8125 211.410156 82.003906 C 148.816406 74.132812 89.328125 116.234375 72.140625 184.699219 C 70.625 184.476562 68.980469 184.347656 67.167969 184.347656 C 44.34375 184.347656 25.835938 202.851562 25.835938 225.679688 C 25.835938 248.503906 44.34375 267.011719 67.167969 267.011719 C 69.394531 267.011719 71.378906 266.828125 73.164062 266.492188 C 94.050781 345.121094 167.3125 403.203125 254.519531 403.203125 C 259.566406 403.203125 264.570312 403 269.519531 402.617188 C 173.957031 395.238281 98.589844 317.96875 97.203125 223.25 Z M 97.203125 223.25 " style=" stroke:none;fill-rule:nonzero;fill:rgb(99.607843%,80.784314%,74.901961%);fill-opacity:1;" />
<path d="M 357.679688 260.285156 L 333.554688 260.285156 C 329.410156 260.285156 326.054688 256.925781 326.054688 252.785156 C 326.054688 248.644531 329.410156 245.285156 333.554688 245.285156 L 357.679688 245.285156 C 361.820312 245.285156 365.179688 248.644531 365.179688 252.785156 C 365.179688 256.925781 361.820312 260.285156 357.679688 260.285156 Z M 357.679688 260.285156 " style=" stroke:none;fill-rule:nonzero;fill:rgb(97.647059%,50.196078%,51.764706%);fill-opacity:1;" />
<path d="M 175.480469 260.285156 L 151.355469 260.285156 C 147.214844 260.285156 143.855469 256.925781 143.855469 252.785156 C 143.855469 248.644531 147.214844 245.285156 151.355469 245.285156 L 175.480469 245.285156 C 179.625 245.285156 182.980469 248.644531 182.980469 252.785156 C 182.980469 256.925781 179.625 260.285156 175.480469 260.285156 Z M 175.480469 260.285156 " style=" stroke:none;fill-rule:nonzero;fill:rgb(97.647059%,50.196078%,51.764706%);fill-opacity:1;" />
<path d="M 273.300781 416.234375 C 273.300781 416.234375 323.292969 459.101562 323.292969 403.203125 C 323.292969 347.304688 273.300781 390.171875 273.300781 390.171875 Z M 273.300781 416.234375 " style=" stroke:none;fill-rule:nonzero;fill:rgb(100%,30.196078%,30.980392%);fill-opacity:1;" />
<path d="M 235.734375 416.234375 C 235.734375 416.234375 185.742188 459.101562 185.742188 403.203125 C 185.742188 347.304688 235.734375 390.171875 235.734375 390.171875 Z M 235.734375 416.234375 " style=" stroke:none;fill-rule:nonzero;fill:rgb(100%,30.196078%,30.980392%);fill-opacity:1;" />
<path d="M 260.953125 385.246094 L 248.082031 385.246094 C 238.164062 385.246094 230.125 393.285156 230.125 403.203125 C 230.125 413.121094 238.164062 421.160156 248.082031 421.160156 L 260.953125 421.160156 C 270.871094 421.160156 278.910156 413.121094 278.910156 403.203125 C 278.910156 393.285156 270.871094 385.246094 260.953125 385.246094 Z M 260.953125 385.246094 " style=" stroke:none;fill-rule:nonzero;fill:rgb(100%,40%,40.784314%);fill-opacity:1;" />
<path d="M 345.617188 234.25 C 349.757812 234.25 353.117188 230.890625 353.117188 226.75 L 353.117188 209.035156 C 353.117188 204.894531 349.757812 201.535156 345.617188 201.535156 C 341.472656 201.535156 338.117188 204.894531 338.117188 209.035156 L 338.117188 226.75 C 338.117188 230.890625 341.472656 234.25 345.617188 234.25 Z M 345.617188 234.25 " style=" stroke:none;fill-rule:nonzero;fill:rgb(0%,0%,0%);fill-opacity:1;" />
<path d="M 163.421875 234.25 C 167.5625 234.25 170.921875 230.890625 170.921875 226.75 L 170.921875 209.035156 C 170.921875 204.894531 167.5625 201.535156 163.421875 201.535156 C 159.277344 201.535156 155.921875 204.894531 155.921875 209.035156 L 155.921875 226.75 C 155.921875 230.890625 159.277344 234.25 163.421875 234.25 Z M 163.421875 234.25 " style=" stroke:none;fill-rule:nonzero;fill:rgb(0%,0%,0%);fill-opacity:1;" />
<path d="M 254.519531 259.285156 C 263.03125 259.285156 271.03125 255.722656 276.460938 249.511719 C 279.183594 246.394531 278.867188 241.65625 275.75 238.929688 C 272.628906 236.203125 267.890625 236.519531 265.164062 239.640625 C 262.585938 242.589844 258.703125 244.285156 254.519531 244.285156 C 250.332031 244.285156 246.453125 242.589844 243.871094 239.640625 C 241.144531 236.519531 236.40625 236.199219 233.289062 238.929688 C 230.167969 241.652344 229.851562 246.390625 232.578125 249.511719 C 238.007812 255.722656 246.003906 259.285156 254.519531 259.285156 Z M 254.519531 259.285156 " style=" stroke:none;fill-rule:nonzero;fill:rgb(0%,0%,0%);fill-opacity:1;" />
<path d="M 261.175781 447.699219 C 261.175781 451.378906 258.195312 454.359375 254.519531 454.359375 C 250.839844 454.359375 247.859375 451.378906 247.859375 447.699219 C 247.859375 444.023438 250.839844 441.039062 254.519531 441.039062 C 258.195312 441.039062 261.175781 444.023438 261.175781 447.699219 Z M 261.175781 447.699219 " style=" stroke:none;fill-rule:nonzero;fill:rgb(0%,0%,0%);fill-opacity:1;" />
<path d="M 261.175781 478.191406 C 261.175781 481.867188 258.195312 484.851562 254.519531 484.851562 C 250.839844 484.851562 247.859375 481.867188 247.859375 478.191406 C 247.859375 474.511719 250.839844 471.53125 254.519531 471.53125 C 258.195312 471.53125 261.175781 474.511719 261.175781 478.191406 Z M 261.175781 478.191406 " style=" stroke:none;fill-rule:nonzero;fill:rgb(0%,0%,0%);fill-opacity:1;" />
<path d="M 142.574219 418.378906 C 128.753906 436.316406 114.890625 464.324219 114.890625 504.5 C 114.890625 508.640625 118.25 512 122.390625 512 L 386.644531 512 C 390.789062 512 394.144531 508.640625 394.144531 504.5 C 394.144531 464.316406 380.277344 436.308594 366.457031 418.367188 C 384.542969 409.792969 401.753906 399.695312 417.726562 388.253906 C 421.09375 385.84375 421.867188 381.15625 419.457031 377.789062 C 417.042969 374.425781 412.359375 373.648438 408.992188 376.0625 C 392.617188 387.789062 374.875 398.058594 356.183594 406.621094 C 352.132812 402.527344 347.796875 398.710938 343.222656 395.214844 C 341.816406 394.136719 340.398438 392.976562 338.890625 392.050781 C 338.875 392.035156 338.855469 392.023438 338.839844 392.011719 C 338.929688 391.96875 339.019531 391.925781 339.109375 391.882812 C 368.816406 377.917969 394.375 356.859375 413.632812 330.324219 C 426.082031 313.171875 435.40625 294.347656 441.40625 274.507812 C 441.476562 274.511719 441.546875 274.507812 441.617188 274.507812 C 444.089844 274.523438 446.589844 274.335938 449.035156 273.980469 C 455.316406 273.050781 461.328125 270.855469 466.800781 267.644531 C 467.667969 267.136719 468.519531 266.601562 469.351562 266.035156 L 493.851562 281.882812 C 487.238281 294.453125 468.402344 326.074219 432.164062 357.722656 C 429.042969 360.449219 428.722656 365.1875 431.449219 368.304688 C 434.171875 371.425781 438.910156 371.746094 442.03125 369.019531 C 480.609375 335.324219 500.582031 301.410156 507.375 288.390625 C 510.851562 281.730469 508.714844 273.636719 502.414062 269.554688 L 480.558594 255.421875 C 486.910156 247.175781 490.699219 236.867188 490.699219 225.679688 C 490.699219 213.109375 485.921875 201.636719 478.089844 192.972656 C 471.878906 143.894531 449.589844 99.4375 413.511719 64.269531 C 370.988281 22.824219 314.523438 0 254.519531 0 C 201.320312 0 149.746094 18.4375 109.296875 51.914062 C 106.105469 54.554688 105.660156 59.28125 108.300781 62.472656 C 110.941406 65.664062 115.671875 66.109375 118.859375 63.46875 C 156.628906 32.214844 204.804688 15 254.519531 15 C 310.589844 15 363.335938 36.3125 403.042969 75.011719 C 433.148438 104.359375 452.960938 140.628906 460.921875 180.691406 C 457.234375 179.128906 453.351562 178.03125 449.347656 177.421875 C 449.148438 177.390625 442.574219 177.007812 442.527344 176.851562 C 433.945312 147.453125 417.574219 122.273438 395.667969 104.058594 C 380.035156 91.015625 361.507812 81.527344 341.664062 76.890625 C 320.046875 71.742188 297.300781 72.558594 276.015625 78.851562 C 268.828125 80.976562 261.695312 83.621094 254.988281 86.976562 C 254.832031 87.050781 254.675781 87.121094 254.519531 87.195312 C 254.347656 87.113281 254.175781 87.035156 254.003906 86.953125 C 247.1875 83.683594 240.125 80.933594 232.871094 78.8125 C 211.644531 72.605469 189.023438 71.765625 167.484375 76.863281 C 146.898438 81.734375 127.117188 92.003906 111.050781 106.03125 C 90.304688 124.070312 74.785156 148.5 66.511719 176.851562 C 66.160156 176.855469 65.8125 176.878906 65.464844 176.890625 C 65.113281 176.902344 64.761719 176.910156 64.414062 176.929688 C 63.898438 176.957031 63.382812 177.003906 62.867188 177.046875 C 62.589844 177.070312 62.308594 177.089844 62.03125 177.117188 C 61.371094 177.1875 60.71875 177.273438 60.0625 177.371094 C 59.941406 177.386719 59.816406 177.402344 59.691406 177.421875 C 55.691406 178.03125 51.8125 179.128906 48.125 180.691406 C 55.347656 144.527344 72.347656 111.175781 97.84375 83.425781 C 100.644531 80.375 100.445312 75.628906 97.394531 72.828125 C 94.34375 70.023438 89.597656 70.226562 86.796875 73.277344 C 55.886719 106.921875 36.609375 148.261719 30.941406 192.972656 C 23.113281 201.636719 18.339844 213.109375 18.339844 225.679688 C 18.339844 236.863281 22.128906 247.175781 28.476562 255.417969 L 6.625 269.554688 C 0.320312 273.632812 -1.816406 281.730469 1.660156 288.390625 C 12.160156 308.507812 52.671875 375.769531 142.574219 418.378906 Z M 159.683594 421.234375 C 163.65625 416.800781 168 412.679688 172.632812 408.941406 C 173.835938 407.980469 177.59375 405.164062 178.257812 404.695312 C 178.261719 404.9375 178.273438 405.160156 178.277344 405.398438 C 178.433594 411.800781 179.195312 418.3125 181.585938 424.296875 C 183.804688 429.863281 187.539062 434.644531 192.988281 437.3125 C 196.160156 438.867188 199.730469 439.476562 203.242188 439.441406 L 203.242188 497 L 174.066406 497 L 174.066406 466.894531 C 174.066406 462.753906 170.710938 459.394531 166.566406 459.394531 C 162.425781 459.394531 159.066406 462.753906 159.066406 466.894531 L 159.066406 497 L 130.066406 497 C 131.476562 467.050781 141.421875 441.59375 159.683594 421.234375 Z M 168.792969 374.539062 C 148.945312 364.035156 131.414062 350.042969 117.03125 333.4375 C 116.886719 333.273438 116.742188 333.105469 116.597656 332.9375 C 86.132812 297.410156 69.746094 249.132812 76.308594 202.507812 C 76.328125 202.371094 76.347656 202.234375 76.367188 202.101562 C 81.09375 169.363281 97.148438 136.960938 123.257812 115.339844 C 159.234375 85.542969 209.4375 80.746094 251.011719 102.21875 C 253.167969 103.332031 255.800781 103.367188 257.964844 102.246094 C 264.953125 98.628906 272.277344 95.640625 279.820312 93.382812 C 321.609375 80.867188 366.984375 94.210938 396.773438 125.640625 C 430.5 161.230469 443.046875 217.667969 428.628906 264.53125 C 428.601562 264.625 428.570312 264.71875 428.546875 264.816406 C 422.699219 286.695312 412.578125 306.988281 399.058594 324.753906 C 383.355469 345.386719 363.113281 362.445312 340.199219 374.5625 C 335.878906 376.851562 331.457031 378.953125 326.964844 380.882812 C 325.996094 378.710938 324.765625 376.652344 323.261719 374.808594 C 318.03125 368.382812 311.121094 366.964844 306.078125 366.964844 C 294.425781 366.964844 281.785156 374.566406 274.449219 379.808594 C 273.972656 380.148438 273.519531 380.476562 273.089844 380.796875 C 273.082031 380.800781 273.070312 380.808594 273.0625 380.816406 C 272.945312 380.90625 270.855469 379.757812 270.601562 379.652344 C 267.558594 378.398438 264.285156 377.757812 261 377.75 C 260.984375 377.75 260.96875 377.746094 260.953125 377.746094 L 248.082031 377.746094 C 248.066406 377.746094 248.050781 377.75 248.039062 377.75 C 243.878906 377.75 239.644531 378.808594 235.972656 380.8125 C 235.953125 380.796875 235.925781 380.78125 235.90625 380.765625 C 230.71875 376.949219 225.183594 373.519531 219.277344 370.925781 C 214.046875 368.625 208.394531 366.964844 202.957031 366.964844 C 197.917969 366.964844 191.015625 368.382812 185.785156 374.792969 C 184.273438 376.644531 183.046875 378.703125 182.070312 380.882812 C 180.664062 380.277344 171.71875 376.210938 168.792969 374.539062 Z M 62.683594 259.195312 C 56.300781 258.332031 50.191406 255.625 45.28125 251.449219 C 37.980469 245.238281 33.339844 235.992188 33.339844 225.679688 C 33.339844 210.128906 43.882812 196.996094 58.199219 193.054688 C 59.628906 192.660156 61.105469 192.363281 62.582031 192.160156 C 62.660156 192.152344 62.738281 192.140625 62.816406 192.132812 C 61.128906 200.949219 60.121094 210.023438 59.800781 219.242188 C 59.335938 232.628906 60.957031 246.242188 63.730469 259.324219 C 63.378906 259.285156 63.03125 259.242188 62.683594 259.195312 Z M 446.457031 192.164062 C 447.898438 192.355469 449.328125 192.660156 450.738281 193.027344 C 450.769531 193.035156 450.804688 193.046875 450.835938 193.054688 C 465.152344 196.992188 475.699219 210.128906 475.699219 225.679688 C 475.699219 242.53125 462.644531 257.285156 445.890625 259.261719 C 445.699219 259.285156 445.503906 259.300781 445.308594 259.320312 C 446.863281 251.972656 447.972656 244.511719 448.632812 236.972656 C 448.636719 236.9375 448.640625 236.902344 448.640625 236.867188 C 449.15625 230.992188 449.441406 225.128906 449.238281 219.234375 C 448.917969 210.015625 447.90625 200.945312 446.222656 192.132812 C 446.300781 192.140625 446.378906 192.152344 446.457031 192.164062 Z M 306.078125 424.484375 C 303.027344 424.515625 299.960938 423.460938 297.167969 422.320312 C 292.359375 420.351562 287.449219 417.34375 283.671875 414.710938 C 284.503906 413.078125 285.144531 411.355469 285.609375 409.550781 C 286.679688 405.398438 286.679688 400.972656 285.601562 396.820312 C 285.144531 395.042969 284.503906 393.324219 283.671875 391.695312 C 283.667969 391.628906 285.296875 390.585938 285.789062 390.261719 C 289.726562 387.664062 293.863281 385.300781 298.292969 383.644531 C 301.148438 382.578125 304.335938 381.691406 307.414062 382.03125 C 312.320312 382.574219 314.082031 388.285156 314.882812 392.347656 C 315.582031 395.914062 315.792969 399.570312 315.792969 403.203125 C 315.792969 411.675781 314.554688 416.640625 313.210938 419.546875 C 311.851562 422.476562 309.40625 424.457031 306.078125 424.484375 Z M 265.71875 412.445312 C 264.273438 413.21875 262.648438 413.660156 260.957031 413.660156 C 260.957031 413.660156 248.082031 413.660156 248.082031 413.660156 C 242.414062 413.660156 237.625 408.871094 237.625 403.203125 C 237.625 397.570312 242.441406 392.746094 248.082031 392.746094 C 248.082031 392.746094 260.953125 392.746094 260.957031 392.746094 C 266.609375 392.746094 271.410156 397.554688 271.410156 403.203125 C 271.410156 407.121094 269.050781 410.660156 265.71875 412.445312 Z M 193.300781 400.21875 C 193.300781 400.207031 193.300781 400.199219 193.300781 400.1875 C 193.523438 394.589844 194.15625 382.964844 201.640625 382.03125 C 205.75 381.585938 209.792969 383.097656 213.46875 384.773438 C 217.535156 386.632812 221.386719 388.941406 225.058594 391.484375 C 225.164062 391.554688 225.261719 391.625 225.363281 391.695312 C 224.535156 393.324219 223.894531 395.039062 223.4375 396.816406 C 223.433594 396.832031 223.429688 396.84375 223.425781 396.859375 C 222.875 398.921875 222.625 401.070312 222.625 403.203125 C 222.625 407.136719 223.5625 411.171875 225.363281 414.710938 C 225.335938 414.734375 225.304688 414.753906 225.273438 414.773438 C 221.523438 417.386719 216.675781 420.347656 211.917969 422.300781 C 209.089844 423.449219 206.046875 424.441406 202.957031 424.441406 C 192.265625 424.441406 192.976562 407.402344 193.300781 400.21875 Z M 218.242188 435.925781 C 225.382812 432.9375 231.820312 428.664062 235.976562 425.589844 C 239.671875 427.597656 243.875 428.65625 248.082031 428.65625 C 248.082031 428.65625 260.957031 428.65625 260.957031 428.65625 C 265.121094 428.65625 269.367188 427.59375 273.0625 425.589844 C 277.203125 428.652344 283.617188 432.914062 290.730469 435.898438 C 290.753906 435.90625 290.773438 435.917969 290.792969 435.925781 L 290.792969 497 L 218.242188 497 Z M 349.96875 497 L 349.96875 466.894531 C 349.96875 462.753906 346.609375 459.394531 342.46875 459.394531 C 338.328125 459.394531 334.96875 462.753906 334.96875 466.894531 L 334.96875 497 L 305.792969 497 L 305.792969 439.441406 C 305.886719 439.441406 305.976562 439.441406 306.082031 439.441406 C 313.464844 439.476562 320.269531 436.128906 324.464844 430 C 328.507812 424.164062 330.578125 415.949219 330.773438 404.933594 C 330.773438 404.855469 330.777344 404.777344 330.78125 404.695312 C 330.824219 404.726562 330.867188 404.757812 330.910156 404.789062 C 337.363281 409.355469 343.886719 415.136719 349.351562 421.234375 C 367.617188 441.59375 377.5625 467.050781 378.972656 497 Z M 39.683594 266.03125 C 47.308594 271.230469 56.398438 274.195312 65.625 274.484375 C 66.292969 274.503906 66.960938 274.515625 67.628906 274.507812 C 73.628906 294.34375 82.953125 313.171875 95.402344 330.324219 C 114.65625 356.851562 140.207031 377.90625 169.902344 391.867188 C 170 391.914062 170.097656 391.964844 170.195312 392.011719 C 170.183594 392.019531 170.167969 392.03125 170.152344 392.042969 C 169.570312 392.449219 168.972656 392.871094 168.367188 393.3125 C 163.664062 396.71875 159.203125 400.457031 155.019531 404.488281 C 154.292969 405.191406 153.566406 405.902344 152.851562 406.621094 C 65.109375 366.429688 25.632812 301.742188 15.183594 281.882812 Z M 39.683594 266.03125 " style=" stroke:none;fill-rule:nonzero;fill:rgb(0%,0%,0%);fill-opacity:1;" />
</g>
</svg>